<?xml version="1.0" encoding="iso-8859-1"?>
<!-- Generator: Adobe Illustrator 19.0.0, SVG Export Plug-In . SVG Version: 6.00 Build 0)  -->
<svg version="1.1" id="Capa_1" xmlns="http://www.w3.org/2000/svg" xmlns:xlink="http://www.w3.org/1999/xlink" x="0px" y="0px"
	 viewBox="0 0 512.001 512.001" style="enable-background:new 0 0 512.001 512.001;" xml:space="preserve">
<path style="fill:#536080;" d="M104.046,480.007c-25.776,0-46.746-20.97-46.746-46.746v-25.57c0-8.438,6.841-15.279,15.279-15.279
	h62.932c8.438,0,15.279,6.841,15.279,15.279v25.57C150.791,459.037,129.821,480.007,104.046,480.007z"/>
<path style="fill:#394257;" d="M407.983,480.007c-25.776,0-46.746-20.97-46.746-46.746v-25.57c0-8.438,6.841-15.279,15.279-15.279
	h62.932c8.438,0,15.279,6.841,15.279,15.279v25.57C454.728,459.037,433.759,480.007,407.983,480.007z"/>
<path style="fill:#FF7632;" d="M315.432,123.089H188.474c-8.438,0-15.279-6.841-15.279-15.279V71.536
	c0-21.804,17.739-39.542,39.542-39.542h78.431c21.803,0,39.541,17.739,39.541,39.542v36.274
	C330.711,116.248,323.87,123.089,315.432,123.089z"/>
<path style="fill:#F74825;" d="M291.169,31.994h-39.215v91.095h63.479c8.438,0,15.279-6.841,15.279-15.279V71.536
	C330.711,49.733,312.972,31.994,291.169,31.994z"/>
<path style="fill:#FFDE42;" d="M425.588,271.017H78.32c-4.885,0-9.476-2.336-12.351-6.285c-2.875-3.949-3.689-9.036-2.189-13.685
	l37.782-117.108c0.075-0.234,0.156-0.467,0.243-0.697c9.175-24.351,32.825-40.713,58.848-40.713h182.602
	c26.024,0,49.673,16.361,58.848,40.713c0.088,0.23,0.168,0.462,0.243,0.696l37.783,117.108c1.5,4.649,0.687,9.736-2.189,13.686
	C435.064,268.682,430.473,271.017,425.588,271.017z"/>
<path style="fill:#B4E8FF;" d="M370.436,271.017H133.471c-4.845,0-9.403-2.298-12.285-6.194c-2.881-3.895-3.743-8.927-2.323-13.559
	l30.472-99.478c1.967-6.42,7.894-10.804,14.608-10.804h176.022c6.715,0,12.642,4.384,14.609,10.804l30.471,99.478
	c1.42,4.633,0.557,9.664-2.323,13.559C379.838,268.72,375.281,271.017,370.436,271.017z"/>
<g>
	<path style="fill:#FFCE1F;" d="M496.721,422.969H15.279C6.841,422.969,0,416.129,0,407.691V287.492
		c0-25.933,21.099-47.032,47.032-47.032h417.937c25.933,0,47.032,21.098,47.032,47.032v120.199
		C512,416.129,505.159,422.969,496.721,422.969z"/>
	<path style="fill:#FFCE1F;" d="M402.346,133.94c-0.075-0.233-0.156-0.465-0.243-0.696c-9.175-24.351-32.825-40.713-58.848-40.713
		h-91.301v178.486h173.634c4.885,0,9.476-2.336,12.351-6.285c2.875-3.949,3.689-9.036,2.189-13.686L402.346,133.94z"/>
</g>
<path style="fill:#6AD3FF;" d="M354.572,151.786c-1.967-6.42-7.894-10.804-14.608-10.804h-88.012v130.035h118.482
	c4.845,0,9.402-2.298,12.285-6.194c2.881-3.895,3.743-8.927,2.323-13.559L354.572,151.786z"/>
<path style="fill:#FFA300;" d="M464.968,240.46H251.953v182.509h244.768c8.438,0,15.279-6.841,15.279-15.279V287.492
	C512,261.559,490.901,240.46,464.968,240.46z"/>
<path style="fill:#FFE587;" d="M104.046,374.049c-23.343,0-42.334-18.991-42.334-42.334c0-23.343,18.991-42.333,42.334-42.333
	s42.333,18.99,42.333,42.333C146.379,355.058,127.389,374.049,104.046,374.049z"/>
<path style="fill:#FFDE42;" d="M407.983,374.049c-23.343,0-42.333-18.991-42.333-42.334c0-23.343,18.99-42.333,42.333-42.333
	c23.343,0,42.334,18.99,42.334,42.333C450.317,355.058,431.325,374.049,407.983,374.049z"/>
<path style="fill:#536080;" d="M308.995,346.993H203.034c-8.438,0-15.279-6.841-15.279-15.279c0-8.438,6.841-15.279,15.279-15.279
	h105.961c8.438,0,15.279,6.841,15.279,15.279C324.273,340.153,317.434,346.993,308.995,346.993z"/>
<path style="fill:#394257;" d="M308.995,316.436h-57.042v30.557h57.042c8.438,0,15.279-6.841,15.279-15.279
	C324.273,323.277,317.434,316.436,308.995,316.436z"/>
<g>
</g>
<g>
</g>
<g>
</g>
<g>
</g>
<g>
</g>
<g>
</g>
<g>
</g>
<g>
</g>
<g>
</g>
<g>
</g>
<g>
</g>
<g>
</g>
<g>
</g>
<g>
</g>
<g>
</g>
</svg>
