<?xml version="1.0" encoding="iso-8859-1"?>
<!-- Generator: Adobe Illustrator 19.0.0, SVG Export Plug-In . SVG Version: 6.00 Build 0)  -->
<svg version="1.1" id="Capa_1" xmlns="http://www.w3.org/2000/svg" xmlns:xlink="http://www.w3.org/1999/xlink" x="0px" y="0px"
	 viewBox="0 0 512 512" style="enable-background:new 0 0 512 512;" xml:space="preserve">
<path style="fill:#EEBF00;" d="M504.479,263.962v71.997c0,10.82-8.764,19.584-19.584,19.584H27.104
	c-10.82,0-19.584-8.764-19.584-19.584V135.681c0-15.001,11.261-27.385,25.791-29.14c1.173-0.15,2.356-0.221,3.57-0.221h320.165
	c22.451,0,40.651,18.2,40.651,40.651v58.701c0,12.434,10.088,22.522,22.522,22.522h48.132
	C488.185,228.194,504.279,244.168,504.479,263.962z"/>
<path style="fill:#FFCD00;" d="M504.479,263.962v64.837H52.794c-10.81,0-19.584-8.764-19.584-19.573V108.938
	c0-0.802,0.03-1.604,0.1-2.397c1.173-0.15,2.356-0.221,3.57-0.221h320.165c22.451,0,40.651,18.2,40.651,40.651v58.701
	c0,12.434,10.088,22.522,22.522,22.522h48.132C488.185,228.194,504.279,244.168,504.479,263.962z"/>
<path style="fill:#3E3D42;" d="M300.321,159.005v196.537h-87.239V159.005c0-6.618,5.415-12.033,12.033-12.033h63.173
	C294.906,146.972,300.321,152.387,300.321,159.005z"/>
<path style="fill:#96C8EF;" d="M373.511,148.306v66.181c0,1.845-1.504,3.349-3.339,3.349h-42.115c-1.845,0-3.349-1.504-3.349-3.349
	v-66.181c0-1.835,1.504-3.339,3.349-3.339h42.115C372.007,144.966,373.511,146.471,373.511,148.306z"/>
<path style="fill:#FF0C38;" d="M504.479,263.962v37.432h-40.541c-6.618,0-12.033-5.415-12.033-12.033v-13.367
	c0-6.618,5.415-12.033,12.033-12.033L504.479,263.962L504.479,263.962z"/>
<path style="fill:#78B9EB;" d="M373.511,148.306v28.087l-41.443,41.443h-4.011c-1.845,0-3.349-1.504-3.349-3.349V186.37
	l41.393-41.403h4.071C372.007,144.966,373.511,146.471,373.511,148.306z"/>
<g>
	<path style="fill:#96C8EF;" d="M78.738,144.966v72.869H40.063c-0.04,0-0.08,0-0.12-0.01c-1.795-0.06-3.229-1.534-3.229-3.339
		v-66.181c0-1.835,1.504-3.339,3.349-3.339H78.738z"/>
	<rect x="88.903" y="144.966" style="fill:#96C8EF;" width="42.807" height="72.869"/>
	<path style="fill:#96C8EF;" d="M182.87,148.306v66.181c0,1.845-1.504,3.349-3.339,3.349h-38.676v-72.869h38.676
		C181.366,144.966,182.87,146.471,182.87,148.306z"/>
</g>
<g>
	<path style="fill:#78B9EB;" d="M78.738,144.966v34.063l-38.796,38.796c-1.795-0.06-3.229-1.534-3.229-3.339v-32.268l37.242-37.252
		H78.738z"/>
	<polygon style="fill:#78B9EB;" points="131.705,144.966 131.705,178.839 92.708,217.836 88.898,217.836 88.898,182.81 
		126.732,144.966 	"/>
	<path style="fill:#78B9EB;" d="M182.87,148.306v31.637l-37.894,37.894h-4.121v-34.715l38.144-38.154h0.531
		C181.366,144.966,182.87,146.471,182.87,148.306z"/>
</g>
<circle style="fill:#3E3D42;" cx="92.633" cy="357.548" r="48.132"/>
<circle style="fill:#2D2D30;" cx="92.633" cy="357.548" r="20.677"/>
<path style="fill:#1D1D1F;" d="M113.31,357.548c0,11.421-9.255,20.677-20.677,20.677v-41.353
	C104.055,336.871,113.31,346.126,113.31,357.548z"/>
<circle style="fill:#3E3D42;" cx="415.747" cy="357.548" r="48.132"/>
<circle style="fill:#2D2D30;" cx="415.737" cy="357.548" r="20.677"/>
<path style="fill:#1D1D1F;" d="M436.412,357.548c0,11.421-9.255,20.677-20.677,20.677v-41.353
	C427.157,336.871,436.412,346.126,436.412,357.548z"/>
<path d="M7.521,297.072c4.151,0,7.521-3.369,7.521-7.521V135.681c0-12.043,9.797-21.84,21.84-21.84h88.783
	c4.151,0,7.521-3.369,7.521-7.521c0-4.151-3.369-7.521-7.521-7.521H36.881C16.545,98.8,0,115.345,0,135.681v153.871
	C0,293.703,3.369,297.072,7.521,297.072z"/>
<path d="M155.746,113.841h201.3c18.27,0,33.131,14.861,33.131,33.131v23.605c0,4.151,3.369,7.521,7.521,7.521
	s7.521-3.369,7.521-7.521v-23.605c0-26.563-21.609-48.172-48.172-48.172h-201.3c-4.161,0-7.521,3.369-7.521,7.521
	C148.225,110.472,151.584,113.841,155.746,113.841z"/>
<path d="M468.351,220.673h-48.132c-8.273,0-15.001-6.728-15.001-15.001v-5.014c0-4.151-3.369-7.521-7.521-7.521
	s-7.521,3.369-7.521,7.521v5.014c0,16.565,13.477,30.042,30.042,30.042h48.132c12.996,0,24.076,8.804,27.505,20.727h-31.917
	c-10.779,0-19.553,8.774-19.553,19.553v13.367c0,10.779,8.774,19.553,19.553,19.553h33.02v27.044
	c0,6.648-5.415,12.063-12.063,12.063h-14.319c-4.522-26.162-27.395-46.126-54.83-46.126s-50.308,19.965-54.83,46.126h-53.075
	V209.453c0-4.151-3.369-7.521-7.521-7.521s-7.521,3.369-7.521,7.521v138.569h-24.006h-4.573V154.492h24.066
	c2.447,0,4.512,2.066,4.512,4.512v20.366c0,4.151,3.369,7.521,7.521,7.521s7.521-3.369,7.521-7.521v-20.366
	c0-10.779-8.774-19.553-19.553-19.553h-63.173c-10.779,0-19.553,8.774-19.553,19.553v66.181c0,4.151,3.369,7.521,7.521,7.521
	c4.151,0,7.521-3.369,7.521-7.521v-66.181c0-2.447,2.066-4.512,4.512-4.512h24.066v193.529h-28.578v-92.754
	c0-4.151-3.369-7.521-7.521-7.521c-4.151,0-7.521,3.369-7.521,7.521v92.754h-58.099c-4.522-26.162-27.395-46.126-54.83-46.126
	s-50.308,19.965-54.83,46.126H27.104c-6.648,0-12.063-5.415-12.063-12.063v-16.325c0-4.151-3.369-7.521-7.521-7.521
	S0,315.483,0,319.634v16.325c0,14.951,12.153,27.104,27.104,27.104h10.148C40.029,391.17,63.804,413.2,92.633,413.2
	s52.604-22.03,55.381-50.137c54.987,0,158.062,0,212.351,0c2.778,28.107,26.553,50.137,55.381,50.137s52.604-22.03,55.381-50.137
	h13.768c14.951,0,27.104-12.153,27.104-27.104v-34.565v-37.513C511.759,240.056,492.176,220.673,468.351,220.673z M92.633,398.159
	c-26.284,0-45.644-24.722-39.478-50.137c4.292-17.809,20.366-31.085,39.478-31.085s35.186,13.276,39.478,31.085
	C138.229,373.236,119.101,398.159,92.633,398.159z M415.747,398.159c-20.516,0-37.543-15.302-40.23-35.096
	c-3.368-24.251,15.593-46.126,40.23-46.126c24.676,0,43.593,21.914,40.23,46.126C453.289,382.857,436.263,398.159,415.747,398.159z
	 M463.939,293.874c-2.447,0-4.512-2.066-4.512-4.512v-13.367c0-2.447,2.066-4.512,4.512-4.512h33.02v22.391H463.939z"/>
<path d="M66.101,348.022c-6.592,18.13,6.932,37.723,26.533,37.723c19.663,0,33.114-19.626,26.533-37.723
	C110.258,323.201,75.041,323.171,66.101,348.022z M79.477,357.548c0-7.235,5.893-13.156,13.156-13.156
	c9.717,0,15.949,10.182,11.933,18.671C98.667,375.859,79.477,371.536,79.477,357.548z"/>
<path d="M415.747,329.351c-17.648,0-31.111,16.141-27.656,33.712c2.567,12.915,13.988,22.682,27.656,22.682
	c13.657,0,25.079-9.767,27.656-22.682C446.865,345.455,433.34,329.351,415.747,329.351z M402.591,357.548
	c0-11.542,13.889-17.458,22.211-9.526c4.272,4.051,5.163,10.21,2.878,15.041C421.834,375.741,402.591,371.676,402.591,357.548z"/>
<path d="M34.675,225.356h150.251c5.986,0,10.86-4.873,10.86-10.87v-66.181c0-5.986-4.873-10.86-10.86-10.86H34.675
	c-5.986,0-10.86,4.873-10.86,10.86v66.181C23.815,220.483,28.688,225.356,34.675,225.356z M91.655,210.315v-57.828h36.29v57.828
	H91.655z M180.744,210.315h-37.757v-57.828h37.757V210.315z M38.856,152.487h37.757v57.828H38.856V152.487z"/>
<path d="M370.168,137.446h-42.115c-5.99,0-10.863,4.872-10.863,10.863v66.181c0,5.99,4.873,10.864,10.863,10.864h42.115
	c5.989,0,10.863-4.873,10.863-10.864v-24.772c0-4.154-3.367-7.521-7.521-7.521s-7.521,3.366-7.521,7.521v20.594H332.23v-57.825
	h33.759v7.149c0,4.154,3.367,7.521,7.521,7.521s7.521-3.366,7.521-7.521v-11.327C381.031,142.318,376.158,137.446,370.168,137.446z"
	/>
<path d="M188.515,236.713H32.088c-4.153,0-7.521,3.366-7.521,7.521c0,4.154,3.367,7.521,7.521,7.521h156.428
	c4.153,0,7.521-3.366,7.521-7.521C196.036,240.079,192.669,236.713,188.515,236.713z"/>
<path d="M188.515,262.286H32.088c-4.153,0-7.521,3.366-7.521,7.521c0,4.154,3.367,7.521,7.521,7.521h156.428
	c4.153,0,7.521-3.366,7.521-7.521C196.036,265.652,192.669,262.286,188.515,262.286z"/>
<path d="M394.062,236.713h-71.696c-4.153,0-7.521,3.366-7.521,7.521c0,4.154,3.367,7.521,7.521,7.521h71.696
	c4.153,0,7.521-3.366,7.521-7.521C401.583,240.079,398.216,236.713,394.062,236.713z"/>
<path d="M394.062,262.286h-71.696c-4.153,0-7.521,3.366-7.521,7.521c0,4.154,3.367,7.521,7.521,7.521h71.696
	c4.153,0,7.521-3.366,7.521-7.521C401.583,265.652,398.216,262.286,394.062,262.286z"/>
<g>
</g>
<g>
</g>
<g>
</g>
<g>
</g>
<g>
</g>
<g>
</g>
<g>
</g>
<g>
</g>
<g>
</g>
<g>
</g>
<g>
</g>
<g>
</g>
<g>
</g>
<g>
</g>
<g>
</g>
</svg>
